<svg xmlns="http://www.w3.org/2000/svg" viewBox="0 0 161.38 220.34"><defs><style>.cls-1{fill:#d7006d;}.cls-2{fill:#ff5000;}.cls-3{fill:#b31aab;}</style></defs><title>care-it-easy-logo</title><g id="Layer_2" data-name="Layer 2"><g id="Layer_1-2" data-name="Layer 1"><path class="cls-1" d="M35.45,74.75a11.38,11.38,0,0,1-3.16,7.37q-4.82,5.61-14.65,5.61Q3.42,87.73,0,76.67V12.2Q0,3.77,9.12,1.05a32.24,32.24,0,0,1,9.13-1Q31.06-.7,35.45,9.83V37.2H24.65V9.39a4.21,4.21,0,0,0-1.14-3,3.76,3.76,0,0,0-2.89-1.23,3.68,3.68,0,0,0-3.86,3.16V77.12a4.1,4.1,0,0,0,1.84,3.51,6.92,6.92,0,0,0,4.12,1.31q4.91,0,5.53-3.95V58.17h7.2Z"/><path class="cls-1" d="M74.57,94.13H60.62l-1-4.65A11.39,11.39,0,0,1,49,95.88q-7.1,0-9.65-5.53V55q0-4.73,1.75-6.58L49,41.58Q56.41,34.12,55.88,27V18.33q0-4.83-3.33-4.83T48.69,17v19.3H39l.26-16.49a10.5,10.5,0,0,1,2.46-6.58q4.3-5.09,14.82-5.09,15.36,0,18,10.62Zm-10-17.72V36.75q-7.81,2.28-7.81,7.2V78.07a5,5,0,0,0,4.3,2.28q3.51,0,3.51-3.95"/><path class="cls-1" d="M116.25,34.81H97.4V15q.16-3.16-3.43-3.16c-2.45,0-3.86,1.11-4.21,3.33v41H79.41V1.32l15.18-.09V5.18Q96.17,0,105.38,0t10.87,9.91Z"/><path class="cls-1" d="M157.73,83.16a14.29,14.29,0,0,1-2.28,6.4q-4.48,6.32-14.91,6.32-15.44,0-18.08-11.05V21.49q0-8.6,8.87-11.75a27.73,27.73,0,0,1,8.86-1.41,14.7,14.7,0,0,1,2.37-.17q11.67,0,15.18,10.09V56.49H129.66V81.67q0,6.13,3.94,6.14c2.64,0,4.07-1.26,4.3-3.77V65.61h19.83ZM140.18,49.74V25.87q-1.23-3.59-3.59-3.59a4.54,4.54,0,0,0-3.07,1.05,3.23,3.23,0,0,0-1.23,2.54V49.74Z"/><path class="cls-2" d="M35.27,169.7A14.24,14.24,0,0,1,33,176.1q-4.48,6.32-14.91,6.32Q2.63,182.42,0,171.36V108q0-8.6,8.86-11.75a27.8,27.8,0,0,1,8.86-1.4,14.38,14.38,0,0,1,2.37-.18q11.67,0,15.18,10.09V143H7.2V168.2q0,6.14,3.95,6.14t4.3-3.77V152.15H35.27ZM17.72,136.27V112.41c-.82-2.4-2-3.6-3.59-3.6a4.57,4.57,0,0,0-3.08,1.06,3.25,3.25,0,0,0-1.23,2.54v23.87Z"/><path class="cls-2" d="M74.57,193.66H60.62l-1-4.65A11.39,11.39,0,0,1,49,195.42q-7.1,0-9.65-5.53V154.54q0-4.74,1.75-6.58l7.9-6.85q7.46-7.46,6.93-14.56v-8.69q0-4.83-3.33-4.83t-3.86,3.51v19.3H39l.26-16.49a10.51,10.51,0,0,1,2.46-6.58q4.3-5.08,14.82-5.09,15.36,0,18,10.62Zm-10-17.72V136.29q-7.81,2.28-7.81,7.19v34.13a5,5,0,0,0,4.3,2.28q3.51,0,3.51-4"/><path class="cls-2" d="M118.33,205.69a17.71,17.71,0,0,1-2.1,7.37q-4.31,7.28-15.27,7.28t-15.88-6.67A15.36,15.36,0,0,1,82.45,207V188.76H98.59V211.3a2.88,2.88,0,0,0,.78,1.76,3.52,3.52,0,0,0,2.81,1.23,3.9,3.9,0,0,0,3.77-2.37V196.66q0-9.49-9.57-12.9A22,22,0,0,1,83.15,171.3V144.72q4.39-12.1,17.81-12.1t17.37,10.26v15.53H94.91V143.14q.35-2.54-3.6-2.54t-3.77,2.54v6.23a15,15,0,0,0,2.28,8.51q3.42,4.92,12.63,9.12,12.72,5.8,15.88,15.88Z"/><path class="cls-2" d="M161.38,106.66l-11.23,80.1q-1.31,7.63-8.42,7.63c-.52,0-1.08,0-1.67-.09H126.73V181.67h6.05q3.42-.35,2.8-4.82l-9-67H143l5.35,50.54,6.93-53.69Z"/><rect class="cls-3" x="79.45" y="81.27" width="10.2" height="49.68"/><rect class="cls-3" x="79.43" y="61.51" width="10.27" height="15.41"/><path class="cls-3" d="M124.93,119.37q-1.66,11.75-14.12,11.76c-8.3,0-10.73-3.75-11-11.23V76.63H93.64V61.54H100V50H106V63.74h13.07q.18,10.7,0,10.7h-13.6v42.39a4,4,0,0,0,1,2.63,3.07,3.07,0,0,0,2.45,1.14q2.45,0,2.89-2.9V95.43h13.13Z"/></g></g></svg>